<mxfile host="app.diagrams.net" agent="Mozilla/5.0 (Windows NT 10.0; Win64; x64) AppleWebKit/537.36 (KHTML, like Gecko) Chrome/128.0.0.0 Safari/537.36 Edg/128.0.0.0" version="24.7.10">
  <diagram id="C5RBs43oDa-KdzZeNtuy" name="Page-1">
    <mxGraphModel dx="954" dy="647" grid="1" gridSize="10" guides="1" tooltips="1" connect="1" arrows="1" fold="1" page="1" pageScale="1" pageWidth="827" pageHeight="1169" math="0" shadow="0">
      <root>
        <mxCell id="WIyWlLk6GJQsqaUBKTNV-0" />
        <mxCell id="WIyWlLk6GJQsqaUBKTNV-1" parent="WIyWlLk6GJQsqaUBKTNV-0" />
        <mxCell id="NZk6dpr6dsBuUNjYoqfv-3" value="" style="edgeStyle=orthogonalEdgeStyle;rounded=0;orthogonalLoop=1;jettySize=auto;html=1;" edge="1" parent="WIyWlLk6GJQsqaUBKTNV-1" source="WIyWlLk6GJQsqaUBKTNV-3" target="NZk6dpr6dsBuUNjYoqfv-0">
          <mxGeometry relative="1" as="geometry" />
        </mxCell>
        <mxCell id="WIyWlLk6GJQsqaUBKTNV-3" value="开始" style="rounded=1;whiteSpace=wrap;html=1;fontSize=12;glass=0;strokeWidth=1;shadow=0;absoluteArcSize=1;arcSize=23;" parent="WIyWlLk6GJQsqaUBKTNV-1" vertex="1">
          <mxGeometry x="160" y="70" width="120" height="30" as="geometry" />
        </mxCell>
        <mxCell id="NZk6dpr6dsBuUNjYoqfv-5" value="" style="edgeStyle=orthogonalEdgeStyle;rounded=0;orthogonalLoop=1;jettySize=auto;html=1;" edge="1" parent="WIyWlLk6GJQsqaUBKTNV-1" source="NZk6dpr6dsBuUNjYoqfv-0" target="NZk6dpr6dsBuUNjYoqfv-4">
          <mxGeometry relative="1" as="geometry" />
        </mxCell>
        <mxCell id="NZk6dpr6dsBuUNjYoqfv-0" value="方位角(azimuth)&#xa;倾角(angle)&#xa;起点坐标(begin_coor)&#xa;过层距离(over_dis)" style="shape=parallelogram;perimeter=parallelogramPerimeter;fixedSize=1;verticalAlign=middle;horizontal=1;fontSize=12;spacingTop=0;spacing=0;align=center;" vertex="1" parent="WIyWlLk6GJQsqaUBKTNV-1">
          <mxGeometry x="142" y="120" width="156" height="80" as="geometry" />
        </mxCell>
        <mxCell id="NZk6dpr6dsBuUNjYoqfv-7" value="" style="edgeStyle=orthogonalEdgeStyle;rounded=0;orthogonalLoop=1;jettySize=auto;html=1;" edge="1" parent="WIyWlLk6GJQsqaUBKTNV-1" source="NZk6dpr6dsBuUNjYoqfv-4" target="NZk6dpr6dsBuUNjYoqfv-6">
          <mxGeometry relative="1" as="geometry" />
        </mxCell>
        <mxCell id="NZk6dpr6dsBuUNjYoqfv-9" value="" style="edgeStyle=orthogonalEdgeStyle;rounded=0;orthogonalLoop=1;jettySize=auto;html=1;" edge="1" parent="WIyWlLk6GJQsqaUBKTNV-1" source="NZk6dpr6dsBuUNjYoqfv-4" target="NZk6dpr6dsBuUNjYoqfv-8">
          <mxGeometry relative="1" as="geometry" />
        </mxCell>
        <mxCell id="NZk6dpr6dsBuUNjYoqfv-4" value="计算方向向量(dir)" style="whiteSpace=wrap;html=1;spacingTop=0;spacing=0;" vertex="1" parent="WIyWlLk6GJQsqaUBKTNV-1">
          <mxGeometry x="160" y="220" width="120" height="30" as="geometry" />
        </mxCell>
        <mxCell id="NZk6dpr6dsBuUNjYoqfv-6" value="X = sin(azimuth)&#xa;Y = cos(azimuth)&#xa;Z = tan(angle)&#xa;向量单位化" style="spacingTop=0;spacing=2;align=left;spacingLeft=2;" vertex="1" parent="WIyWlLk6GJQsqaUBKTNV-1">
          <mxGeometry x="330" y="205" width="150" height="60" as="geometry" />
        </mxCell>
        <mxCell id="NZk6dpr6dsBuUNjYoqfv-13" value="" style="edgeStyle=orthogonalEdgeStyle;rounded=0;orthogonalLoop=1;jettySize=auto;html=1;" edge="1" parent="WIyWlLk6GJQsqaUBKTNV-1" source="NZk6dpr6dsBuUNjYoqfv-8" target="NZk6dpr6dsBuUNjYoqfv-12">
          <mxGeometry relative="1" as="geometry" />
        </mxCell>
        <mxCell id="NZk6dpr6dsBuUNjYoqfv-15" value="" style="edgeStyle=orthogonalEdgeStyle;rounded=0;orthogonalLoop=1;jettySize=auto;html=1;" edge="1" parent="WIyWlLk6GJQsqaUBKTNV-1" source="NZk6dpr6dsBuUNjYoqfv-8" target="NZk6dpr6dsBuUNjYoqfv-14">
          <mxGeometry relative="1" as="geometry" />
        </mxCell>
        <mxCell id="NZk6dpr6dsBuUNjYoqfv-8" value="创建射线(ray)" style="whiteSpace=wrap;html=1;spacingTop=0;spacing=0;" vertex="1" parent="WIyWlLk6GJQsqaUBKTNV-1">
          <mxGeometry x="160" y="290" width="120" height="30" as="geometry" />
        </mxCell>
        <mxCell id="NZk6dpr6dsBuUNjYoqfv-12" value="&lt;div&gt;起点 = begin_coor&lt;/div&gt;&lt;div&gt;方向 = dir&lt;/div&gt;" style="whiteSpace=wrap;html=1;spacingTop=0;spacing=2;align=left;spacingLeft=2;" vertex="1" parent="WIyWlLk6GJQsqaUBKTNV-1">
          <mxGeometry x="330" y="282.5" width="150" height="45" as="geometry" />
        </mxCell>
        <mxCell id="NZk6dpr6dsBuUNjYoqfv-17" value="" style="edgeStyle=orthogonalEdgeStyle;rounded=0;orthogonalLoop=1;jettySize=auto;html=1;" edge="1" parent="WIyWlLk6GJQsqaUBKTNV-1" source="NZk6dpr6dsBuUNjYoqfv-14" target="NZk6dpr6dsBuUNjYoqfv-16">
          <mxGeometry relative="1" as="geometry" />
        </mxCell>
        <mxCell id="NZk6dpr6dsBuUNjYoqfv-27" value="" style="edgeStyle=orthogonalEdgeStyle;rounded=0;orthogonalLoop=1;jettySize=auto;html=1;" edge="1" parent="WIyWlLk6GJQsqaUBKTNV-1" source="NZk6dpr6dsBuUNjYoqfv-14" target="NZk6dpr6dsBuUNjYoqfv-26">
          <mxGeometry relative="1" as="geometry" />
        </mxCell>
        <mxCell id="NZk6dpr6dsBuUNjYoqfv-14" value="寻找与地层模型(三角面表示tries)交点" style="whiteSpace=wrap;html=1;spacingTop=0;spacing=0;" vertex="1" parent="WIyWlLk6GJQsqaUBKTNV-1">
          <mxGeometry x="160" y="350" width="120" height="60" as="geometry" />
        </mxCell>
        <mxCell id="NZk6dpr6dsBuUNjYoqfv-19" value="" style="edgeStyle=orthogonalEdgeStyle;rounded=0;orthogonalLoop=1;jettySize=auto;html=1;" edge="1" parent="WIyWlLk6GJQsqaUBKTNV-1" source="NZk6dpr6dsBuUNjYoqfv-16" target="NZk6dpr6dsBuUNjYoqfv-18">
          <mxGeometry relative="1" as="geometry" />
        </mxCell>
        <mxCell id="NZk6dpr6dsBuUNjYoqfv-25" value="是" style="edgeLabel;html=1;align=center;verticalAlign=middle;resizable=0;points=[];" vertex="1" connectable="0" parent="NZk6dpr6dsBuUNjYoqfv-19">
          <mxGeometry x="-0.1111" y="-2" relative="1" as="geometry">
            <mxPoint as="offset" />
          </mxGeometry>
        </mxCell>
        <mxCell id="NZk6dpr6dsBuUNjYoqfv-21" value="" style="edgeStyle=orthogonalEdgeStyle;rounded=0;orthogonalLoop=1;jettySize=auto;html=1;entryX=1;entryY=0;entryDx=0;entryDy=0;exitX=1;exitY=0;exitDx=0;exitDy=0;" edge="1" parent="WIyWlLk6GJQsqaUBKTNV-1" source="NZk6dpr6dsBuUNjYoqfv-16" target="NZk6dpr6dsBuUNjYoqfv-16">
          <mxGeometry relative="1" as="geometry">
            <mxPoint x="555" y="380" as="targetPoint" />
          </mxGeometry>
        </mxCell>
        <mxCell id="NZk6dpr6dsBuUNjYoqfv-23" value="" style="edgeStyle=orthogonalEdgeStyle;rounded=0;orthogonalLoop=1;jettySize=auto;html=1;entryX=1;entryY=0;entryDx=0;entryDy=0;" edge="1" parent="WIyWlLk6GJQsqaUBKTNV-1" source="NZk6dpr6dsBuUNjYoqfv-16" target="NZk6dpr6dsBuUNjYoqfv-16">
          <mxGeometry relative="1" as="geometry">
            <mxPoint x="510" y="330" as="targetPoint" />
            <Array as="points">
              <mxPoint x="480" y="340" />
              <mxPoint x="480" y="400" />
              <mxPoint x="438" y="400" />
            </Array>
          </mxGeometry>
        </mxCell>
        <mxCell id="NZk6dpr6dsBuUNjYoqfv-24" value="否" style="edgeLabel;html=1;align=center;verticalAlign=middle;resizable=0;points=[];" vertex="1" connectable="0" parent="NZk6dpr6dsBuUNjYoqfv-23">
          <mxGeometry x="0.0021" y="-1" relative="1" as="geometry">
            <mxPoint as="offset" />
          </mxGeometry>
        </mxCell>
        <mxCell id="NZk6dpr6dsBuUNjYoqfv-16" value="ray和tri是否有交点" style="rhombus;whiteSpace=wrap;html=1;spacingTop=0;spacing=0;" vertex="1" parent="WIyWlLk6GJQsqaUBKTNV-1">
          <mxGeometry x="340" y="340" width="130" height="80" as="geometry" />
        </mxCell>
        <mxCell id="NZk6dpr6dsBuUNjYoqfv-18" value="交点(inter_coor)" style="whiteSpace=wrap;html=1;spacingTop=0;spacing=0;" vertex="1" parent="WIyWlLk6GJQsqaUBKTNV-1">
          <mxGeometry x="330" y="460" width="150" height="30" as="geometry" />
        </mxCell>
        <mxCell id="NZk6dpr6dsBuUNjYoqfv-29" value="" style="edgeStyle=orthogonalEdgeStyle;rounded=0;orthogonalLoop=1;jettySize=auto;html=1;" edge="1" parent="WIyWlLk6GJQsqaUBKTNV-1" source="NZk6dpr6dsBuUNjYoqfv-26" target="NZk6dpr6dsBuUNjYoqfv-28">
          <mxGeometry relative="1" as="geometry" />
        </mxCell>
        <mxCell id="NZk6dpr6dsBuUNjYoqfv-31" value="" style="edgeStyle=orthogonalEdgeStyle;rounded=0;orthogonalLoop=1;jettySize=auto;html=1;" edge="1" parent="WIyWlLk6GJQsqaUBKTNV-1" source="NZk6dpr6dsBuUNjYoqfv-26" target="NZk6dpr6dsBuUNjYoqfv-30">
          <mxGeometry relative="1" as="geometry" />
        </mxCell>
        <mxCell id="NZk6dpr6dsBuUNjYoqfv-26" value="计算钻孔终点坐标" style="whiteSpace=wrap;html=1;spacingTop=0;spacing=0;" vertex="1" parent="WIyWlLk6GJQsqaUBKTNV-1">
          <mxGeometry x="160" y="511" width="120" height="60" as="geometry" />
        </mxCell>
        <mxCell id="NZk6dpr6dsBuUNjYoqfv-28" value="&lt;span lang=&quot;EN-US&quot; style=&quot;font-size:10.5pt;font-family:&lt;br/&gt;&amp;quot;Times New Roman&amp;quot;,serif;mso-fareast-font-family:宋体;mso-font-kerning:1.0pt;&lt;br/&gt;mso-ansi-language:EN-US;mso-fareast-language:ZH-CN;mso-bidi-language:AR-SA&quot;&gt;end_coor等于方向向量dir与over_dis&lt;/span&gt;&lt;span style=&quot;background-color: initial; font-size: 10.5pt;&quot;&gt;的乘积加上交点（inter_coor）&lt;/span&gt;" style="whiteSpace=wrap;html=1;spacingTop=0;spacing=2;align=left;" vertex="1" parent="WIyWlLk6GJQsqaUBKTNV-1">
          <mxGeometry x="330" y="511" width="150" height="60" as="geometry" />
        </mxCell>
        <mxCell id="NZk6dpr6dsBuUNjYoqfv-30" value="结束" style="rounded=1;whiteSpace=wrap;html=1;spacingTop=0;spacing=0;absoluteArcSize=1;arcSize=23;" vertex="1" parent="WIyWlLk6GJQsqaUBKTNV-1">
          <mxGeometry x="160" y="600" width="120" height="25" as="geometry" />
        </mxCell>
      </root>
    </mxGraphModel>
  </diagram>
</mxfile>
